<svg width="32" height="32" viewBox="0 0 32 32" fill="none" xmlns="http://www.w3.org/2000/svg">
<path d="M31.5 13.5V26C31.5 27.1936 31.0267 28.3385 30.1826 29.1826C29.3385 30.0267 28.1936 30.5 27 30.5H7C5.80641 30.5 4.66147 30.0267 3.81738 29.1826C2.97329 28.3385 2.5 27.1936 2.5 26V13.5H31.5ZM9 23.5C8.17186 23.5 7.5 24.1719 7.5 25C7.5 25.8281 8.17186 26.5 9 26.5H11C11.8281 26.5 12.5 25.8281 12.5 25C12.5 24.1719 11.8281 23.5 11 23.5H9ZM16 23.5C15.1719 23.5 14.5 24.1719 14.5 25C14.5 25.8281 15.1719 26.5 16 26.5H18C18.8281 26.5 19.5 25.8281 19.5 25C19.5 24.1719 18.8281 23.5 18 23.5H16ZM23 23.5C22.1719 23.5 21.5 24.1719 21.5 25C21.5 25.8281 22.1719 26.5 23 26.5H25C25.8281 26.5 26.5 25.8281 26.5 25C26.5 24.1719 25.8281 23.5 25 23.5H23ZM9 19.5C8.17186 19.5 7.5 20.1719 7.5 21C7.5 21.8281 8.17186 22.5 9 22.5H11C11.8281 22.5 12.5 21.8281 12.5 21C12.5 20.1719 11.8281 19.5 11 19.5H9ZM16 19.5C15.1719 19.5 14.5 20.1719 14.5 21C14.5 21.8281 15.1719 22.5 16 22.5H18C18.8281 22.5 19.5 21.8281 19.5 21C19.5 20.1719 18.8281 19.5 18 19.5H16ZM23 19.5C22.1719 19.5 21.5 20.1719 21.5 21C21.5 21.8281 22.1719 22.5 23 22.5H25C25.8281 22.5 26.5 21.8281 26.5 21C26.5 20.1719 25.8281 19.5 25 19.5H23ZM9 15.5C8.17186 15.5 7.5 16.1719 7.5 17C7.5 17.8281 8.17186 18.5 9 18.5H11C11.8281 18.5 12.5 17.8281 12.5 17C12.5 16.1719 11.8281 15.5 11 15.5H9ZM16 15.5C15.1719 15.5 14.5 16.1719 14.5 17C14.5 17.8281 15.1719 18.5 16 18.5H18C18.8281 18.5 19.5 17.8281 19.5 17C19.5 16.1719 18.8281 15.5 18 15.5H16ZM23 15.5C22.1719 15.5 21.5 16.1719 21.5 17C21.5 17.8281 22.1719 18.5 23 18.5H25C25.8281 18.5 26.5 17.8281 26.5 17C26.5 16.1719 25.8281 15.5 25 15.5H23ZM23 1.5C23.1782 1.5 23.3207 1.55522 23.4072 1.62012C23.4934 1.68483 23.5 1.73584 23.5 1.75V6.25C23.5 6.64982 23.7176 6.974 23.9932 7.18066C24.2686 7.38712 24.6263 7.5 25 7.5C25.3737 7.5 25.7314 7.38712 26.0068 7.18066C26.2824 6.974 26.5 6.64982 26.5 6.25V4.5H27C28.1936 4.5 29.3385 4.97329 30.1826 5.81738C31.0267 6.66147 31.5 7.80641 31.5 9V10.5H2.5V9C2.5 7.80641 2.97329 6.66147 3.81738 5.81738C4.66147 4.97329 5.80641 4.5 7 4.5H10.5V1.75C10.5 1.73584 10.5066 1.68483 10.5928 1.62012C10.6793 1.55522 10.8218 1.5 11 1.5C11.1782 1.5 11.3207 1.55522 11.4072 1.62012C11.4934 1.68483 11.5 1.73584 11.5 1.75V6.25C11.5 6.64982 11.7176 6.974 11.9932 7.18066C12.2686 7.38712 12.6263 7.5 13 7.5C13.3737 7.5 13.7314 7.38712 14.0068 7.18066C14.2824 6.974 14.5 6.64982 14.5 6.25V4.5H22.5V1.75C22.5 1.73584 22.5066 1.68483 22.5928 1.62012C22.6793 1.55522 22.8218 1.5 23 1.5Z" fill="#888888" stroke="#888888"/>
</svg>
