<svg width="14" height="14" viewBox="0 0 14 14" fill="none" xmlns="http://www.w3.org/2000/svg">
<path d="M3.94338 12.8334H10.0567C11.6667 12.8334 12.3084 11.8476 12.3842 10.6459L12.6875 5.82758C12.7692 4.56758 11.7659 3.50008 10.5 3.50008C10.1442 3.50008 9.81755 3.29591 9.65421 2.98091L9.23421 2.13508C8.96588 1.60425 8.26588 1.16675 7.67088 1.16675H6.33505C5.73421 1.16675 5.03421 1.60425 4.76588 2.13508L4.34588 2.98091C4.18255 3.29591 3.85588 3.50008 3.50005 3.50008C2.23421 3.50008 1.23088 4.56758 1.31255 5.82758L1.61588 10.6459C1.68588 11.8476 2.33338 12.8334 3.94338 12.8334Z" stroke="white" stroke-width="0.875" stroke-linecap="round" stroke-linejoin="round"/>
<path d="M6.125 4.66675H7.875" stroke="white" stroke-width="0.875" stroke-linecap="round" stroke-linejoin="round"/>
<path d="M7.00005 10.4999C8.04422 10.4999 8.89588 9.64825 8.89588 8.60409C8.89588 7.55992 8.04422 6.70825 7.00005 6.70825C5.95588 6.70825 5.10422 7.55992 5.10422 8.60409C5.10422 9.64825 5.95588 10.4999 7.00005 10.4999Z" stroke="white" stroke-width="0.875" stroke-linecap="round" stroke-linejoin="round"/>
</svg>
