<?xml version="1.0" encoding="UTF-8"?>
<svg version="1.1" xmlns="http://www.w3.org/2000/svg" width="140" height="137">
<path d="M0 0 C11.92845486 9.5291831 19.40827453 25.20948143 22 40 C23.3541066 60.1413099 20.56056234 79.19486944 7.06811523 94.98608398 C-5.58947822 108.86578991 -22.15262978 118.26685855 -41.10546875 119.38671875 C-60.80462181 120.038628 -78.8273754 114.96973013 -93.5625 101.5 C-106.96102168 88.66356264 -114.82214868 72.65480695 -115.40014648 54.02685547 C-115.67179674 32.92335914 -108.72780195 16.39487753 -94.13671875 1.0390625 C-67.45431224 -24.21494966 -27.76025852 -21.40865159 0 0 Z M-71.75 26.0625 C-74.21936481 27.82678314 -74.21936481 27.82678314 -74.75 30.6875 C-72.79992303 39.30033997 -63.36980782 45.46326564 -57 51 C-58.3707398 54.1476564 -59.87368878 56.02075186 -62.4765625 58.2421875 C-63.146875 58.83386719 -63.8171875 59.42554688 -64.5078125 60.03515625 C-65.91987842 61.26224675 -67.3392049 62.48103153 -68.765625 63.69140625 C-72.88272723 67.24547951 -72.88272723 67.24547951 -74.5859375 72.2578125 C-74.13366984 75.19880235 -74.13366984 75.19880235 -72 78 C-68.7677181 78.92714235 -68.7677181 78.92714235 -65 78 C-61.90923104 75.64523592 -59.39688717 72.82764566 -56.8125 69.9375 C-55.43500012 68.41500014 -54.04615997 66.90265994 -52.64453125 65.40234375 C-52.03971924 64.72679443 -51.43490723 64.05124512 -50.81176758 63.35522461 C-49 62 -49 62 -46.98364258 62.09204102 C-44.68999918 63.14189453 -43.36437684 64.3080453 -41.6171875 66.125 C-41.00746094 66.74890625 -40.39773437 67.3728125 -39.76953125 68.015625 C-38.83173828 68.99789062 -38.83173828 68.99789062 -37.875 70 C-36.6245462 71.29374853 -35.37203752 72.58551506 -34.1171875 73.875 C-33.29130127 74.73738281 -33.29130127 74.73738281 -32.44873047 75.6171875 C-30.28689112 77.68066206 -29.07634622 77.99187806 -26.0625 78.3125 C-22.96088151 78.29350188 -22.96088151 78.29350188 -21.0625 76.3125 C-19.69500522 73.33618782 -20.05663496 72.10544942 -21 69 C-22.56043904 66.8933952 -22.56043904 66.8933952 -24.59765625 65.01171875 C-25.31630859 64.30595703 -26.03496094 63.60019531 -26.77539062 62.87304688 C-27.90750977 61.79120117 -27.90750977 61.79120117 -29.0625 60.6875 C-29.82111328 59.94693359 -30.57972656 59.20636719 -31.36132812 58.44335938 C-33.23219159 56.61956166 -35.11174492 54.80575696 -37 53 C-35.65514754 49.97685718 -34.18624637 47.97961847 -31.77734375 45.72265625 C-30.84631836 44.82836914 -30.84631836 44.82836914 -29.89648438 43.91601562 C-28.59037767 42.68022772 -27.28046877 41.44844603 -25.96679688 40.22070312 C-22.27004345 36.6929375 -22.27004345 36.6929375 -19.9921875 32.19921875 C-19.83042116 29.90014038 -19.83042116 29.90014038 -21.1875 27.75 C-23.28426121 25.7255409 -24.07320967 25 -27 25 C-32.73616992 28.31660901 -36.87421936 32.81136029 -41.3203125 37.66210938 C-42.9765625 39.39453125 -42.9765625 39.39453125 -46 42 C-49.52327781 41.77056303 -51.17589408 40.15245777 -53.53125 37.65625 C-54.17707031 36.98722656 -54.82289062 36.31820312 -55.48828125 35.62890625 C-56.82942708 34.20963542 -58.17057292 32.79036458 -59.51171875 31.37109375 C-60.15753906 30.70207031 -60.80335937 30.03304687 -61.46875 29.34375 C-62.05076172 28.72693359 -62.63277344 28.11011719 -63.23242188 27.47460938 C-66.25340522 24.9543415 -68.09568734 24.65060647 -71.75 26.0625 Z " fill="#FA0101" transform="translate(115,17)"/>
<path d="M0 0 C1.81293089 0.14037521 3.6253443 0.28744889 5.4375 0.4375 C6.95150391 0.55931641 6.95150391 0.55931641 8.49609375 0.68359375 C11 1 11 1 12 2 C14.0605531 2.09993532 16.1245259 2.13080906 18.1875 2.1328125 C19.44304688 2.13410156 20.69859375 2.13539063 21.9921875 2.13671875 C22.97783691 2.13357666 22.97783691 2.13357666 23.98339844 2.13037109 C25.99161335 2.12502234 27.99960459 2.13031691 30.0078125 2.13671875 C31.26335937 2.13542969 32.51890625 2.13414062 33.8125 2.1328125 C34.97394531 2.13168457 36.13539062 2.13055664 37.33203125 2.12939453 C39.92063284 2.30337474 39.92063284 2.30337474 41 1 C43.33297433 0.95907063 45.66705225 0.95758277 48 1 C41.48225984 5.3451601 33.50878757 5.38635663 25.875 5.375 C24.96790283 5.37628906 24.06080566 5.37757813 23.1262207 5.37890625 C14.93798021 5.25192323 7.73152086 3.66030825 0 1 C0 0.67 0 0.34 0 0 Z " fill="#CF1514" transform="translate(43,131)"/>
<path d="M0 0 C1 2 1 2 1 6 C-0.62935241 7.37868281 -2.29749607 8.71274093 -4 10 C-4.33 10.99 -4.66 11.98 -5 13 C-5.99 13 -6.98 13 -8 13 C-8 13.66 -8 14.32 -8 15 C-8.66 15 -9.32 15 -10 15 C-8.59601721 10.89889238 -6.62912962 8.01910841 -3.875 4.6875 C-3.15054687 3.80449219 -2.42609375 2.92148437 -1.6796875 2.01171875 C-1.12539063 1.34785156 -0.57109375 0.68398438 0 0 Z " fill="#D91011" transform="translate(19,20)"/>
<path d="M0 0 C3.0171926 2.55573961 4.2432533 5.38380793 5.75 9 C6.19859375 10.051875 6.6471875 11.10375 7.109375 12.1875 C8 15 8 15 7 18 C6.34 17.01 5.68 16.02 5 15 C4.01 14.67 3.02 14.34 2 14 C2.66 13.67 3.32 13.34 4 13 C3.67 11.35 3.34 9.7 3 8 C2.01 7.67 1.02 7.34 0 7 C0 4.69 0 2.38 0 0 Z " fill="#DD0F0E" transform="translate(127,33)"/>
<path d="M0 0 C0.66 0 1.32 0 2 0 C2.144375 1.134375 2.28875 2.26875 2.4375 3.4375 C2.61171478 6.80777201 2.61171478 6.80777201 4 8 C4.04063832 9.66617115 4.042721 11.33388095 4 13 C4.99 13.33 5.98 13.66 7 14 C6.67 14.99 6.34 15.98 6 17 C6.66 17 7.32 17 8 17 C8.33 18.98 8.66 20.96 9 23 C3.63939619 18.40743592 1.03235494 10.09454944 0.1875 3.25 C0.125625 2.1775 0.06375 1.105 0 0 Z " fill="#D21211" transform="translate(1,80)"/>
<path d="M0 0 C1.13199353 0.9080162 2.25532363 1.82683826 3.375 2.75 C4.00148438 3.26046875 4.62796875 3.7709375 5.2734375 4.296875 C7.08312318 6.08199481 8.00117455 7.67949644 9 10 C7.68 10.99 6.36 11.98 5 13 C4.87625 11.3603125 4.87625 11.3603125 4.75 9.6875 C4.38836869 5.96399307 4.38836869 5.96399307 1.9375 4.25 C1.298125 3.8375 0.65875 3.425 0 3 C0 2.01 0 1.02 0 0 Z " fill="#D61215" transform="translate(50,60)"/>
<path d="M0 0 C4.13639336 1.59092052 7.23213248 4.60474918 10 8 C10 8.66 10 9.32 10 10 C9.34 10 8.68 10 8 10 C7.34 9.01 6.68 8.02 6 7 C5.154375 6.71125 4.30875 6.4225 3.4375 6.125 C2.633125 5.75375 1.82875 5.3825 1 5 C0.1875 2.375 0.1875 2.375 0 0 Z " fill="#D91113" transform="translate(112,16)"/>
<path d="M0 0 C4.67105792 1.55701931 8.08705685 4.08447373 12 7 C9.33333333 7 6.66666667 7 4 7 C3.896875 6.401875 3.79375 5.80375 3.6875 5.1875 C2.91123545 2.71756736 1.92911079 1.67748765 0 0 Z " fill="#DB0F10" transform="translate(100,8)"/>
<path d="M0 0 C0.33 0.66 0.66 1.32 1 2 C0.38125 2.7425 -0.2375 3.485 -0.875 4.25 C-2.60437281 6.48801188 -3.86106661 8.43739987 -5 11 C-5.66 9.68 -6.32 8.36 -7 7 C-4.69 4.69 -2.38 2.38 0 0 Z " fill="#E7090C" transform="translate(90,55)"/>
<path d="M0 0 C2.875 0.1875 2.875 0.1875 6 1 C7.67282031 3.88941691 8 5.6591357 8 9 C6.66368764 7.6905332 5.33102075 6.37734515 4 5.0625 C3.2575 4.33160156 2.515 3.60070312 1.75 2.84765625 C0 1 0 1 0 0 Z " fill="#D90E13" transform="translate(85,77)"/>
<path d="M0 0 C4.40875955 0.50385823 6.82550966 1.9113067 10 5 C11.3125 7.75 11.3125 7.75 12 10 C11.55269531 9.61328125 11.10539062 9.2265625 10.64453125 8.828125 C7.1478974 5.81609925 3.62592537 2.85678969 0 0 Z " fill="#D51313" transform="translate(47,42)"/>
<path d="M0 0 C1 2 1 2 1 6 C-2 8.25 -2 8.25 -5 10 C-3.14285714 2.42857143 -3.14285714 2.42857143 0 0 Z " fill="#E90A0B" transform="translate(19,20)"/>
<path d="M0 0 C0.66 0.33 1.32 0.66 2 1 C0.515 3.475 0.515 3.475 -1 6 C-2.98 5.34 -4.96 4.68 -7 4 C-4.61426621 2.10786631 -2.92824652 0.97608217 0 0 Z " fill="#E00C0D" transform="translate(44,4)"/>
<path d="M0 0 C1.14926266 0.95421808 2.29430541 1.91352045 3.4375 2.875 C4.07558594 3.40867187 4.71367188 3.94234375 5.37109375 4.4921875 C7 6 7 6 8 8 C3.25 6.125 3.25 6.125 1 5 C0.375 2.4375 0.375 2.4375 0 0 Z " fill="#E40B0C" transform="translate(74,84)"/>
<path d="M0 0 C1.32 0.66 2.64 1.32 4 2 C2.03533587 3.06775224 0.03144641 4.06553465 -2 5 C-2.66 4.67 -3.32 4.34 -4 4 C-2.68 2.68 -1.36 1.36 0 0 Z " fill="#E10B0B" transform="translate(98,126)"/>
<path d="M0 0 C2.76276177 0.52268466 5.3260876 1.10869587 8 2 C8.33 2.99 8.66 3.98 9 5 C5.22454612 3.90931332 2.52956528 3.0916909 0 0 Z " fill="#D41113" transform="translate(30,124)"/>
</svg>
