<svg width="28" height="31" viewBox="0 0 28 31" fill="none" xmlns="http://www.w3.org/2000/svg">
<path d="M20.4821 17.7144H21.5898V18.8215H20.4821V17.7144Z" fill="#888888"/>
<path d="M20.4821 12.7319H21.5898V13.8391H20.4821V12.7319Z" fill="#888888"/>
<path d="M23.3419 21.1291L20.9936 23.4768L22.981 25.4641H24.9107C25.0276 25.4642 25.1444 25.4705 25.2606 25.4829L26.4784 24.265C27.3398 23.397 27.3398 21.9966 26.4784 21.1285C25.6098 20.2681 24.2102 20.2684 23.3419 21.1291Z" fill="#888888"/>
<path d="M20.4821 5.53568H24.6815L19.9286 0.782715V4.98211C19.9286 5.28784 20.1764 5.53568 20.4821 5.53568Z" fill="#888888"/>
<path d="M4.42857 3.32164C4.42857 3.01591 4.18072 2.76807 3.875 2.76807H2.76785V3.87521H3.875C4.18072 3.87521 4.42857 3.62737 4.42857 3.32164Z" fill="#888888"/>
<path d="M14.9464 28.7856C14.9464 30.0085 15.9378 30.9999 17.1607 30.9999H20.4821V26.5713H17.1607C15.9378 26.5713 14.9464 27.5627 14.9464 28.7856Z" fill="#888888"/>
<path d="M24.9107 26.5713H21.5893V30.9999H24.9107C26.1336 30.9999 27.125 30.0085 27.125 28.7856C27.125 27.5627 26.1336 26.5713 24.9107 26.5713Z" fill="#888888"/>
<path d="M17.1607 25.4643H17.4408L22.5597 20.3454C23.3231 19.5889 24.4051 19.2481 25.4643 19.4304V7.00821C25.463 6.88514 25.4479 6.76259 25.4194 6.64286H20.4821C19.565 6.64286 18.8214 5.89933 18.8214 4.98214V0.0448393C18.7017 0.0163461 18.5791 0.00130653 18.4561 0H0.553571C0.247842 0 0 0.247842 0 0.553571V30.4464C0 30.7522 0.247842 31 0.553571 31H14.6918C13.8142 30.0262 13.5927 28.6268 14.1267 27.4295C14.6606 26.2323 15.8498 25.462 17.1607 25.4643ZM19.375 12.7321C19.375 12.1207 19.8707 11.625 20.4821 11.625H21.5893C22.2007 11.625 22.6964 12.1207 22.6964 12.7321V13.8393C22.6964 14.4507 22.2007 14.9464 21.5893 14.9464H20.4821C19.8707 14.9464 19.375 14.4507 19.375 13.8393V12.7321ZM19.375 17.7143C19.375 17.1028 19.8707 16.6071 20.4821 16.6071H21.5893C22.2007 16.6071 22.6964 17.1028 22.6964 17.7143V18.8214C22.6964 19.4329 22.2007 19.9286 21.5893 19.9286H20.4821C19.8707 19.9286 19.375 19.4329 19.375 18.8214V17.7143ZM11.0714 11.625H16.6071C16.9129 11.625 17.1607 11.8728 17.1607 12.1786C17.1607 12.4843 16.9129 12.7321 16.6071 12.7321H11.0714C10.7657 12.7321 10.5179 12.4843 10.5179 12.1786C10.5179 11.8728 10.7657 11.625 11.0714 11.625ZM1.66071 2.76786C1.66071 2.1564 2.1564 1.66071 2.76786 1.66071H3.875C4.75084 1.65998 5.4767 2.33955 5.5336 3.21354C5.5905 4.08752 4.95888 4.85547 4.09034 4.9683L5.8125 6.69046L6.80505 5.69791C7.02226 5.48812 7.36753 5.49112 7.58106 5.70465C7.79459 5.91818 7.79759 6.26345 7.5878 6.48066L6.59525 7.47321L7.5878 8.46577C7.73171 8.60475 7.78942 8.81057 7.73876 9.00412C7.6881 9.19766 7.53695 9.34881 7.3434 9.39947C7.14986 9.45013 6.94404 9.39242 6.80505 9.24852L5.8125 8.25596L4.81995 9.24852C4.60274 9.45831 4.25747 9.4553 4.04394 9.24177C3.83041 9.02824 3.82741 8.68298 4.0372 8.46577L5.02975 7.47321L2.76786 5.21132V6.64286C2.76786 6.94859 2.52001 7.19643 2.21429 7.19643C1.90856 7.19643 1.66071 6.94859 1.66071 6.64286V2.76786ZM2.21429 11.625H8.85714C9.16287 11.625 9.41071 11.8728 9.41071 12.1786C9.41071 12.4843 9.16287 12.7321 8.85714 12.7321H2.21429C1.90856 12.7321 1.66071 12.4843 1.66071 12.1786C1.66071 11.8728 1.90856 11.625 2.21429 11.625ZM2.21429 13.8393H16.6071C16.9129 13.8393 17.1607 14.0871 17.1607 14.3929C17.1607 14.6986 16.9129 14.9464 16.6071 14.9464H2.21429C1.90856 14.9464 1.66071 14.6986 1.66071 14.3929C1.66071 14.0871 1.90856 13.8393 2.21429 13.8393ZM17.1607 17.1607C17.1607 17.4664 16.9129 17.7143 16.6071 17.7143H11.0714C10.7657 17.7143 10.5179 17.4664 10.5179 17.1607C10.5179 16.855 10.7657 16.6071 11.0714 16.6071H16.6071C16.9129 16.6071 17.1607 16.855 17.1607 17.1607ZM2.21429 16.6071H8.85714C9.16287 16.6071 9.41071 16.855 9.41071 17.1607C9.41071 17.4664 9.16287 17.7143 8.85714 17.7143H2.21429C1.90856 17.7143 1.66071 17.4664 1.66071 17.1607C1.66071 16.855 1.90856 16.6071 2.21429 16.6071ZM2.21429 18.8214H16.6071C16.9129 18.8214 17.1607 19.0693 17.1607 19.375C17.1607 19.6807 16.9129 19.9286 16.6071 19.9286H2.21429C1.90856 19.9286 1.66071 19.6807 1.66071 19.375C1.66071 19.0693 1.90856 18.8214 2.21429 18.8214ZM17.1607 22.1429C17.1607 22.4486 16.9129 22.6964 16.6071 22.6964H11.0714C10.7657 22.6964 10.5179 22.4486 10.5179 22.1429C10.5179 21.8371 10.7657 21.5893 11.0714 21.5893H16.6071C16.9129 21.5893 17.1607 21.8371 17.1607 22.1429ZM2.21429 21.5893H8.85714C9.16287 21.5893 9.41071 21.8371 9.41071 22.1429C9.41071 22.4486 9.16287 22.6964 8.85714 22.6964H2.21429C1.90856 22.6964 1.66071 22.4486 1.66071 22.1429C1.66071 21.8371 1.90856 21.5893 2.21429 21.5893ZM2.21429 24.9107C1.90856 24.9107 1.66071 24.6629 1.66071 24.3571C1.66071 24.0514 1.90856 23.8036 2.21429 23.8036H16.6071C16.9129 23.8036 17.1607 24.0514 17.1607 24.3571C17.1607 24.6629 16.9129 24.9107 16.6071 24.9107H2.21429Z" fill="#888888"/>
<path d="M19.0063 25.4643H21.4155L20.2109 24.2598L19.0063 25.4643Z" fill="#888888"/>
<rect x="1.15039" y="0.787109" width="8.59765" height="9.32422" fill="#888888"/>
</svg>
