<svg width="22" height="23" viewBox="0 0 22 23" fill="none" xmlns="http://www.w3.org/2000/svg">
<path d="M21.7416 11.7855C21.7416 10.878 21.668 10.2158 21.5089 9.52905H11.1589V13.6249H17.2341C17.1117 14.6428 16.4503 16.1757 14.9804 17.2057L14.9598 17.3429L18.2323 19.8811L18.459 19.9037C20.5412 17.9784 21.7416 15.1456 21.7416 11.7855Z" fill="#4285F4"/>
<path d="M11.1591 22.5776C14.1354 22.5776 16.634 21.5965 18.4591 19.9043L14.9806 17.2063C14.0497 17.8563 12.8003 18.31 11.1591 18.31C8.24395 18.31 5.76978 16.3847 4.88781 13.7236L4.75853 13.7346L1.35578 16.3712L1.31128 16.4951C3.12403 20.1004 6.84757 22.5776 11.1591 22.5776Z" fill="#34A853"/>
<path d="M4.88761 13.7242C4.65489 13.0375 4.52021 12.3017 4.52021 11.5414C4.52021 10.781 4.65489 10.0453 4.87536 9.35853L4.8692 9.21227L1.4238 6.53333L1.31108 6.58701C0.563954 8.08314 0.135254 9.76323 0.135254 11.5414C0.135254 13.3195 0.563954 14.9995 1.31108 16.4957L4.88761 13.7242Z" fill="#FBBC05"/>
<path d="M11.1591 4.77147C13.229 4.77147 14.6253 5.66668 15.4215 6.41478L18.5326 3.37349C16.6219 1.59534 14.1354 0.503906 11.1591 0.503906C6.84757 0.503906 3.12403 2.98105 1.31128 6.5864L4.87556 9.35792C5.76978 6.69681 8.24395 4.77147 11.1591 4.77147Z" fill="#EB4335"/>
</svg>
