<svg width="34" height="32" viewBox="0 0 34 32" fill="none" xmlns="http://www.w3.org/2000/svg">
<path d="M16.9997 16.7266C13.5871 16.7299 10.8215 19.3328 10.818 22.5446V31.999H23.1815V22.5447C23.1778 19.3328 20.4122 16.73 16.9997 16.7266Z" fill="#0036BC"/>
<path d="M32.8661 11.6782L18.9573 0.675449C17.8278 -0.22515 16.1721 -0.22515 15.0427 0.675449L1.13386 11.6782C0.412189 12.2542 -0.00261415 13.1005 0.000283529 13.991V29.011C-0.022753 30.6394 1.36089 31.9773 3.09117 31.9994H9.27286V22.5451C9.27286 18.5286 12.7324 15.2725 17 15.2725C21.2677 15.2725 24.7272 18.5285 24.7272 22.5451V31.9995H30.9089C32.6391 31.9773 34.0228 30.6395 33.9998 29.0111V13.991C34.0026 13.1005 33.5878 12.2542 32.8661 11.6782Z" fill="#0036BC"/>
</svg>
