<?xml version="1.0" encoding="UTF-8"?>
<svg id="Layer_2" data-name="Layer 2" xmlns="http://www.w3.org/2000/svg" viewBox="0 0 665.15 217.38">
  <g id="Layer_1-2" data-name="Layer 1">
    <g>
      <g>
        <path fill="#0036bc" d="m124.32,0c40.11,15.53,68.56,54.44,68.56,100.03s-26.5,81.78-64.4,98.33c-10.23-23.64-36.12-18.01-36.12-18.01-29.01,2.66-37.51-4.41-37.51-4.41-1.02,15.56,23.11,17.58,23.11,17.58C29.85,200.22,0,154.54,0,154.54c7.55,46.15,61.88,59.3,61.88,59.3,6.93,1.83,13.49,2.61,19.6,2.68,4.54.57,9.16.86,13.85.86,61.09,0,110.62-49.53,110.62-110.62,0-51.06-34.61-94.02-81.64-106.76Z"/>
        <path fill="#14b1ff" d="m149.57,44.24c-20.68-24.23-54.71-34.58-86.36-23.4C22.1,35.35.62,80.69,15.24,122.09c7.84,22.21,24.49,38.77,44.57,47.11-24.24-7.24-44.86-25.63-53.97-51.43C-9.24,75.07,12.91,28.31,55.32,13.34c35.44-12.52,73.8,1.14,94.25,30.9Z"/>
        <g>
          <path fill="#0036bc" d="m103.69,130.78l.18.03c.43.57-.28,16.04-.42,17.92l-1.01.7c-.35-5.97-.35-11.98-.39-17.96l1.64-.69Z"/>
          <path fill="#0036bc" d="m98.6,117.47c-1.73.84-3.51,1.59-5.27,2.39-2.49,1.16-4.89,2.34-7.18,3.87-1.51-1.23-2.95-2.6-4.43-3.89-4.41-3.84-7.56-6.52-10.16-11.96,1.75.13,3.48.21,5.24.19,2.02-.07,4.16-.26,6.13-.73,3.48,3.49,11.09,8.25,15.67,10.14Z"/>
          <path fill="#0036bc" d="m134.67,107.86c-2.11,6.34-10.07,12.38-15.91,15.31-2.56,1.29-5.35,2.55-8.09,3.39-1.06.71-2.74,1.09-3.95,1.55-1.77.69-3.54,1.36-5.31,2.02-3.35,1.2-6.92,2.36-9.94,4.28-1.67,1.06-2.97,2.26-3.42,4.25,1.21,4.46,8.65,9.46,12.2,12.24-1.66,1.21-3.46,2.26-5.12,3.48-4.23-2.33-8.25-5.13-11.55-8.66-2.19-2.34-3.95-5.22-3.82-8.54.33-8.36,11.76-12.52,18.23-15.38,3.03-1.32,6.02-2.74,8.97-4.24,5.74-2.89,11.32-6.07,16.08-10.44,1.77.28,3.51.53,5.29.73,2.1.15,4.25.26,6.35.03Z"/>
          <path fill="#0036bc" d="m133.85,75.34c-2.45.49-4.89,1.04-7.35,1.45-1.26.25-2.53.47-3.79.74-4.47-5.33-8.88-8.44-15.69-10.1.27-1.25.62-2.47,1.06-3.68.11-.33.27-.74.28-1.09.05-1.75-1.14-4.21-1.44-6.05,9.94,1.51,18.42,6.53,24.37,14.64.93,1.27,1.88,2.65,2.57,4.07Z"/>
          <path fill="#0036bc" d="m98.15,63.85c.32,1.2.65,2.39,1,3.59-6.28,1.5-11.86,4.83-15.77,10.04-1.2-.28-2.41-.55-3.62-.8-.91-.09-1.85-.33-2.75-.51-1.73-.32-3.45-.66-5.17-1.03.59-.95,1.2-1.89,1.85-2.8,4.59-6.54,11.11-11.75,18.76-14.2,2.33-.74,4.71-1.16,7.11-1.58-.57,1.97-1.09,3.96-1.75,5.91l.35,1.39Z"/>
          <path fill="#0036bc" d="m119.45,126.32c.1,0,.22.04.32.07,2.31,2.06,4.82,4.63,5.9,7.58.91,2.48.7,4.95-.42,7.32-3.53,7.47-14.19,13.08-21.71,15.76-.44,4.54-.34,9.14-.73,13.69-.25-1.83-.19-3.75-.24-5.6-.07-2.56-.2-5.12-.23-7.69-1.82.73-3.63,1.45-5.41,2.25-2.62,1.33-4.78,2.74-6.62,5.06,1.98-5.84,10.24-10.87,15.16-14.26,2.74-1.89,5.47-3.75,7.98-5.95,1.37-1.2,2.84-2.51,3.82-4.06.52-.84.91-1.84.65-2.83-.83-3.08-6.27-5.48-8.9-6.89,1.25-.63,2.7-1.06,4.01-1.58,2.2-.86,4.32-1.8,6.42-2.87Z"/>
          <path fill="#0036bc" d="m103.15,46.64c.51.63,3.28,13.24,4.31,15.8-.59,1.52-1.45,3.8-1.6,5.39-.2,2.15.02,4.66.07,6.85l.38,13.9c.11,4.97.17,9.95.18,14.93,0,3.45-.07,6.92.1,10.36-1.54.56-3.06,1.37-4.55,2.05-.83.35-1.64.75-2.45,1.13-.08-10.49.05-20.98.39-31.46l.32-11.66c.05-1.98.26-4.14.05-6.1-.18-1.73-.96-3.59-1.39-5.3.54-1.65.95-3.36,1.4-5.03.97-3.61,1.9-7.22,2.8-10.84Z"/>
          <path fill="#14b1ff" d="m175.29,61.59l.08.09c-.42,1.75-3.58,6.58-4.75,8.11-6.91,9.04-17.76,14.74-28.7,17.28-2.77.64-5.59,1.21-8.41,1.59-2.15.29-4.32.46-6.47.75,2.47.12,4.99-.06,7.45-.21,10.92-.64,21.07-2.71,31.21-6.81-.84,1.41-1.98,2.71-3.1,3.91-6.75,7.2-17.76,10.29-27.3,11.2-3.81.36-7.64.35-11.46.47,3.77.88,7.48,1.68,11.33,2.15,5.29.61,9.8.15,14.94-1.1-1.5,1.31-3,2.53-4.73,3.54-6.51,3.81-13.26,4.19-20.54,3.26-1.71-.22-3.5-.41-5.17-.84-3.39,3.04-7.72,5.42-11.76,7.46.06-3.83.1-7.66.11-11.49.02-2.49-.21-5.33.36-7.76,1.09-4.66,4.53-8.72,8.66-11,3.96-2.18,8.59-2.9,12.97-3.77,2.31-.47,4.61-.97,6.9-1.52,13.48-3.2,26.61-7.9,38.38-15.3Z"/>
          <path fill="#14b1ff" d="m30.58,61.69c.67.28,1.33.75,1.95,1.12,1.29.77,2.58,1.56,3.92,2.26,2.51,1.31,5.06,2.54,7.65,3.69,2.59,1.15,5.21,2.21,7.87,3.2,3.2,1.13,6.45,2.15,9.72,3.05,3.28.9,6.58,1.68,9.92,2.35,4.7.97,9.72,1.54,14.23,3.2,2.79,1.02,5.38,2.52,7.48,4.64,5.34,5.4,4.87,9.3,4.86,16.28l-.04,10.99c-4.16-1.93-7.97-4.55-11.61-7.32-4.94.97-10.37,1.66-15.39.93-5.53-.81-12.75-3.27-16.22-7.9,4.97,2.33,10.59,2.53,15.96,2.11,4.29-.29,8.7-1.23,12.85-2.32-1.96-.18-3.97-.09-5.94-.17-6.21-.24-12.61-.64-18.63-2.31-7.24-2.01-14.7-6.28-18.49-12.98,9.75,4.49,23.22,6.44,33.89,6.82,1.84.07,3.95.3,5.76.04-.84-.25-2.03-.17-2.93-.23-1.31-.09-2.61-.23-3.91-.41-1.42-.19-2.84-.42-4.25-.68-1.41-.26-2.81-.56-4.21-.89-1.4-.33-2.78-.69-4.16-1.09-1.38-.4-2.75-.83-4.1-1.29-9.58-3.24-17.81-8.98-23.26-17.61-1.1-1.75-2.03-3.64-2.94-5.48Z"/>
        </g>
      </g>
      <g>
        <path fill="#0036bc" d="m287.53,92.77c4-7.38,9.55-13.1,16.65-17.16,7.09-4.06,15.22-6.09,24.37-6.09,11.79,0,21.54,2.95,29.27,8.84,7.72,5.89,12.9,14.16,15.53,24.8h-25.92c-1.37-4.12-3.69-7.35-6.95-9.7-3.26-2.34-7.29-3.52-12.1-3.52-6.87,0-12.3,2.49-16.31,7.47-4.01,4.98-6.01,12.05-6.01,21.2s2,16.05,6.01,21.03,9.44,7.47,16.31,7.47c9.73,0,16.08-4.35,19.05-13.04h25.92c-2.63,10.3-7.84,18.48-15.62,24.54-7.78,6.07-17.51,9.1-29.18,9.1-9.16,0-17.28-2.03-24.37-6.09-7.1-4.06-12.65-9.79-16.65-17.16-4.01-7.38-6.01-15.99-6.01-25.83s2-18.45,6.01-25.83Z"/>
        <path fill="#0036bc" d="m390.6,92.69c3.83-7.44,9.04-13.16,15.62-17.16,6.58-4,13.93-6.01,22.06-6.01,7.09,0,13.3,1.43,18.62,4.29,5.32,2.86,9.58,6.46,12.79,10.81v-13.56h24.2v95.09h-24.2v-13.9c-3.09,4.46-7.35,8.15-12.79,11.07-5.44,2.92-11.7,4.38-18.8,4.38-8.01,0-15.31-2.06-21.88-6.18-6.58-4.12-11.79-9.93-15.62-17.42-3.83-7.49-5.75-16.11-5.75-25.83s1.92-18.14,5.75-25.58Zm65.65,10.9c-2.29-4.17-5.38-7.38-9.27-9.61-3.89-2.23-8.07-3.35-12.53-3.35s-8.58,1.09-12.36,3.26c-3.78,2.17-6.84,5.35-9.18,9.53-2.35,4.18-3.52,9.13-3.52,14.85s1.17,10.73,3.52,15.02c2.34,4.29,5.43,7.58,9.27,9.87,3.83,2.29,7.92,3.43,12.27,3.43s8.64-1.11,12.53-3.35c3.89-2.23,6.98-5.43,9.27-9.61,2.29-4.18,3.43-9.18,3.43-15.02s-1.15-10.84-3.43-15.02Z"/>
        <path fill="#0036bc" d="m543.54,73.98c4.98-2.86,10.67-4.29,17.08-4.29v25.23h-6.35c-7.55,0-13.25,1.78-17.08,5.32-3.83,3.55-5.75,9.73-5.75,18.54v47.38h-24.03v-95.09h24.03v14.76c3.09-5.04,7.12-8.98,12.1-11.84Z"/>
        <path fill="#0036bc" d="m664.46,125.81h-69.52c.57,6.87,2.97,12.25,7.21,16.13,4.23,3.89,9.44,5.84,15.62,5.84,8.92,0,15.28-3.83,19.05-11.5h25.92c-2.75,9.16-8.01,16.68-15.79,22.57-7.78,5.89-17.34,8.84-28.67,8.84-9.15,0-17.36-2.03-24.63-6.09-7.27-4.06-12.93-9.81-16.99-17.25-4.06-7.44-6.09-16.02-6.09-25.75s2-18.48,6.01-25.92c4.01-7.44,9.61-13.16,16.82-17.16,7.21-4,15.5-6.01,24.89-6.01s17.14,1.95,24.29,5.83c7.15,3.89,12.7,9.41,16.65,16.56,3.95,7.15,5.92,15.36,5.92,24.63,0,3.43-.23,6.52-.69,9.27Zm-24.2-16.13c-.11-6.18-2.35-11.13-6.69-14.85-4.35-3.72-9.67-5.58-15.96-5.58-5.95,0-10.96,1.8-15.02,5.41-4.06,3.6-6.55,8.61-7.47,15.02h45.14Z"/>
        <path fill="red" d="m268.94,156.75c.06-.12.13-.23.19-.35.09-.18.19-.36.28-.54.06-.12.12-.25.18-.37.08-.18.17-.36.24-.55.06-.13.11-.26.16-.39.07-.18.15-.37.21-.55.05-.13.1-.27.15-.4.07-.19.13-.38.19-.57.04-.14.09-.27.13-.41.06-.19.11-.39.16-.59.04-.14.07-.27.11-.41.05-.2.09-.41.13-.62.03-.13.06-.26.08-.4.04-.23.08-.46.11-.69.02-.11.04-.23.05-.34.05-.35.08-.7.11-1.05.18-2.23,0-4.4-.48-6.45-.08-.35-.17-.71-.27-1.05h0s0,0,0,0c.1.38.17.78.22,1.17.05.4.07.8.07,1.21,0,.62-.06,1.23-.17,1.82-.28,1.52-.92,2.92-1.82,4.11-.16.21-.32.41-.49.6-2.54,2.87-6.72,4.26-11.09,2.67-.25-.09-.5-.19-.73-.31-.02-.01-.04-.02-.07-.03-.15-.07-.29-.15-.43-.22-.06-.03-.12-.06-.18-.09-.13-.08-.26-.16-.39-.24-.08-.05-.16-.1-.23-.15-.12-.08-.24-.17-.36-.26-.08-.06-.15-.12-.23-.18-.11-.09-.23-.18-.34-.28-.07-.06-.14-.13-.21-.2-.08-.08-.17-.16-.25-.24-.02-.02-.05-.05-.07-.07-.08-.09-.16-.18-.25-.27-.03-.04-.07-.08-.1-.12-.03-.04-.07-.08-.11-.12-.08-.09-.15-.18-.22-.28-.07-.09-.14-.18-.21-.28-.07-.1-.14-.21-.21-.31-.07-.1-.13-.21-.2-.31-.06-.09-.11-.18-.16-.28-.02-.03-.04-.07-.05-.1-.05-.1-.11-.2-.16-.3-.03-.06-.07-.13-.1-.19-.04-.07-.07-.15-.1-.23-.06-.14-.12-.28-.17-.42-.04-.1-.07-.2-.11-.29,0-.01,0-.03-.01-.04-.05-.13-.09-.26-.13-.4-.02-.08-.05-.16-.07-.24-.01-.04-.02-.09-.04-.13-.03-.13-.06-.26-.09-.39-.01-.06-.03-.12-.04-.17-.01-.06-.02-.12-.04-.18-.03-.15-.05-.3-.07-.45,0-.04-.01-.07-.02-.11,0-.06-.02-.13-.02-.19-.03-.26-.04-.51-.05-.77,0,0,0,0,0,0,0-.11,0-.23,0-.34,0-.44.03-.88.1-1.33v-.07c.03-.2.07-.41.12-.61,0-.02,0-.03,0-.04l4.63-26.27s0,0,0,0l4.61-26.17.02-5.24c-.07-.23-.16-.45-.26-.67-.02-.05-.05-.1-.07-.16-.08-.18-.18-.36-.27-.54-.02-.03-.03-.06-.05-.09-.25-.44-.55-.84-.88-1.22h0c-.91-1.03-2.1-1.81-3.46-2.22h0s0,0,0,0c-.17-.05-.34-.1-.51-.13-.01,0-.03,0-.04,0-.16-.03-.32-.07-.48-.09-.06,0-.11-.01-.17-.02-.13-.02-.25-.03-.38-.04-.19-.02-.39-.02-.58-.02h-22.74c4.92,0,8.92,4,8.92,8.92,0,.44-.03.89-.1,1.32,0,0,0,.02-.01.06,0,0,0,0,0,0-.02.12-.07.39-.14.79h0c-.31,1.79-1.1,6.25-2.1,11.91h0c-.09.53-.19,1.08-.29,1.63-.36,2.04-.74,4.21-1.14,6.45l-.43,2.44s0,0,0,0c-2.77,15.7-5.92,33.56-5.92,33.56-1.23,7,1.55,13.64,6.54,17.78.11.09.21.18.32.26.13.1.26.2.39.3.11.08.22.17.34.25.13.1.27.19.4.28.12.08.24.16.37.24.13.09.26.17.4.25.15.09.31.18.46.27.19.11.39.22.59.32.17.09.34.18.52.26.13.06.25.12.38.18.16.07.32.14.48.21.13.06.26.11.39.16.17.07.33.13.5.19.13.05.25.09.38.14.2.07.4.13.6.19.1.03.2.06.3.09.3.09.6.16.9.23.09.02.18.04.27.06.22.05.45.09.68.14.12.02.24.04.35.06.21.03.42.06.63.09.12.01.24.03.36.04.22.02.45.04.67.06.11,0,.21.02.32.02.33.02.67.03,1,.03h2.03c5.82,0,11.2-2.33,15.1-6.15.25-.25.5-.5.74-.76.04-.05.08-.09.13-.14.15-.17.3-.33.45-.51.03-.03.05-.07.08-.1.03-.03.06-.07.08-.1,0,0,0,0,0,0h0s.06-.08.09-.11c.15-.19.3-.37.45-.56.07-.09.13-.18.19-.26.13-.18.26-.36.39-.55.07-.1.13-.2.2-.3.12-.18.23-.36.35-.54.07-.11.13-.22.2-.33.11-.18.21-.36.31-.54Z"/>
        <circle fill="red" cx="246.68" cy="61.42" r="11.74"/>
      </g>
    </g>
  </g>
</svg>
