<svg width="25" height="17" viewBox="0 0 25 17" fill="none" xmlns="http://www.w3.org/2000/svg">
<path d="M23.1904 14.875C23.7771 14.8751 24.2529 15.3508 24.2529 15.9375C24.2529 16.5242 23.7771 16.9999 23.1904 17H1.0625C0.475743 17 6.41856e-05 16.5242 0 15.9375C0 15.3507 0.475704 14.875 1.0625 14.875H23.1904ZM17.127 7.4375C17.7137 7.43751 18.1893 7.91333 18.1895 8.5C18.1895 9.08679 17.7137 9.56249 17.127 9.5625H1.0625C0.475704 9.5625 0 9.0868 0 8.5C0.000140216 7.91332 0.47579 7.4375 1.0625 7.4375H17.127ZM23.1904 0C23.7771 0.000119647 24.2529 0.475778 24.2529 1.0625C24.2529 1.64922 23.7771 2.12488 23.1904 2.125H1.0625C0.475707 2.125 5.92925e-06 1.64929 0 1.0625C0 0.475704 0.475704 0 1.0625 0H23.1904Z" fill="#313A43"/>
</svg>
