<svg width="21" height="25" viewBox="0 0 21 25" fill="none" xmlns="http://www.w3.org/2000/svg">
<path d="M18.4178 17.2946V11.2991C17.8423 11.4144 17.2667 11.5297 16.6912 11.5297H16.1156V18.4475H4.60446V10.3767C4.60446 7.14842 7.13691 4.61188 10.36 4.61188C10.4751 3.11302 11.1658 1.84475 12.0867 0.80708C11.7414 0.345891 11.0507 0 10.36 0C9.09381 0 8.05781 1.03767 8.05781 2.30594V2.65183C4.60446 3.68951 2.30223 6.80253 2.30223 10.3767V17.2946L0 19.6005V20.7535H20.7201V19.6005L18.4178 17.2946ZM8.05781 21.9064C8.05781 23.1747 9.09381 24.2124 10.36 24.2124C11.6263 24.2124 12.6623 23.1747 12.6623 21.9064H8.05781Z" fill="#171F3F"/>
<path d="M20.5613 5.17407C20.5613 7.36472 18.7195 9.20947 16.5324 9.20947C14.3453 9.20947 12.5035 7.36472 12.5035 5.17407C12.5035 2.98343 14.3453 1.13867 16.5324 1.13867C18.7195 1.13867 20.5613 2.98343 20.5613 5.17407Z" fill="#FF0000"/>
</svg>
