<svg width="11" height="11" viewBox="0 0 11 11" fill="none" xmlns="http://www.w3.org/2000/svg">
<path d="M5.78913 2.54684L8.45312 5.21116L3.7963 9.86856C3.72348 9.9414 3.63196 9.98864 3.53158 10.0064L1.15593 10.4138C1.12838 10.4187 1.09984 10.4207 1.07228 10.4207C0.942379 10.4207 0.817397 10.3695 0.723906 10.277C0.610733 10.1638 0.559559 10.0034 0.586131 9.84593L0.993553 7.46998C1.01127 7.36959 1.0585 7.27707 1.13133 7.20522L5.78913 2.54684ZM9.98932 1.58721L9.41263 1.01045C8.83791 0.434669 7.90005 0.434669 7.32533 1.01045L6.4849 1.85L9.14889 4.51432L9.98932 3.67379C10.2678 3.39623 10.4213 3.02518 10.4213 2.6305C10.4213 2.23582 10.2678 1.86476 9.98932 1.58721Z" fill="white"/>
</svg>
