<svg width="32" height="33" viewBox="0 0 32 33" fill="none" xmlns="http://www.w3.org/2000/svg">
<g clip-path="url(#clip0_1_7304)">
<path d="M15.772 15.5932C17.8896 15.5932 19.7234 14.8337 21.2217 13.3352C22.72 11.8369 23.4795 10.0036 23.4795 7.88571C23.4795 5.76853 22.72 3.93504 21.2214 2.43627C19.7229 0.938229 17.8894 0.178711 15.772 0.178711C13.6541 0.178711 11.8208 0.938229 10.3225 2.43651C8.82422 3.9348 8.06445 5.76829 8.06445 7.88571C8.06445 10.0036 8.82422 11.8371 10.3228 13.3354C11.8213 14.8334 13.6548 15.5932 15.772 15.5932Z" fill="#888888"/>
<path d="M29.2581 24.7849C29.2148 24.1613 29.1274 23.4812 28.9988 22.7629C28.8689 22.0393 28.7017 21.3552 28.5015 20.73C28.2947 20.0837 28.0134 19.4455 27.6658 18.834C27.3049 18.1992 26.8811 17.6465 26.4055 17.1916C25.9082 16.7158 25.2993 16.3332 24.5952 16.0542C23.8936 15.7766 23.116 15.636 22.2842 15.636C21.9575 15.636 21.6416 15.77 21.0315 16.1672C20.656 16.4121 20.2168 16.6953 19.7266 17.0085C19.3074 17.2756 18.7395 17.5259 18.0381 17.7524C17.3538 17.9739 16.6589 18.0862 15.9731 18.0862C15.2874 18.0862 14.5928 17.9739 13.9077 17.7524C13.207 17.5261 12.6392 17.2759 12.2205 17.0088C11.7349 16.6985 11.2954 16.4153 10.9143 16.167C10.3049 15.7698 9.98877 15.6357 9.66211 15.6357C8.83008 15.6357 8.05273 15.7766 7.35132 16.0544C6.64771 16.333 6.03857 16.7156 5.54077 17.1919C5.06543 17.647 4.64136 18.1995 4.28101 18.834C3.93359 19.4455 3.65234 20.0835 3.44531 20.7302C3.24536 21.3554 3.07812 22.0393 2.94824 22.7629C2.81958 23.4802 2.73218 24.1606 2.68896 24.7856C2.64648 25.3979 2.625 26.0334 2.625 26.6752C2.625 28.3457 3.15601 29.6979 4.20312 30.6953C5.2373 31.6794 6.60571 32.1786 8.26978 32.1786H23.678C25.342 32.1786 26.71 31.6796 27.7444 30.6953C28.7917 29.6987 29.3228 28.3461 29.3228 26.675C29.3225 26.0302 29.3008 25.3942 29.2581 24.7849Z" fill="#888888"/>
</g>
<defs>
<clipPath id="clip0_1_7304">
<rect width="32" height="32" fill="white" transform="translate(0 0.178711)"/>
</clipPath>
</defs>
</svg>
