<svg width="20" height="20" viewBox="0 0 20 20" fill="none" xmlns="http://www.w3.org/2000/svg">
<path d="M10 20C7.32891 20 4.8177 18.9598 2.92895 17.0711C1.0402 15.1823 0 12.6711 0 10C0 7.32891 1.04016 4.8177 2.92895 2.92895C4.8177 1.04016 7.32891 0 10 0C12.6711 0 15.1823 1.0402 17.0711 2.92895C18.9598 4.8177 20 7.32891 20 10C20 12.6711 18.9598 15.1823 17.0711 17.0711C15.1823 18.9598 12.6711 20 10 20Z" fill="white"/>
<path d="M15.3596 10.7689H4.63656C4.21172 10.7689 3.86734 10.4245 3.86734 9.99969C3.86734 9.57484 4.21172 9.23047 4.63656 9.23047H15.3596C15.7845 9.23047 16.1289 9.57484 16.1289 9.99969C16.1289 10.4245 15.7845 10.7689 15.3596 10.7689Z" fill="#0036BC"/>
<path d="M9.99938 16.1287C9.57454 16.1287 9.23016 15.7843 9.23016 15.3595V4.63641C9.23016 4.21156 9.57454 3.86719 9.99938 3.86719C10.4242 3.86719 10.7686 4.21156 10.7686 4.63641V15.3595C10.7686 15.7843 10.4242 16.1287 9.99938 16.1287Z" fill="#0036BC"/>
</svg>
