<svg width="22" height="20" viewBox="0 0 22 20" fill="none" xmlns="http://www.w3.org/2000/svg">
<path d="M19.875 5.25C15.3503 5.25008 7.54133 5.24992 3 5.25C2.51265 5.2422 2.5032 4.50979 3.00004 4.5H5.76375C6.1647 4.00196 7.18759 2.73128 7.575 2.25H3.375C1.515 2.25 0 3.765 0 5.625V16.125C0 17.985 1.515 19.5 3.375 19.5H19.875C20.91 19.5 21.75 18.66 21.75 17.625V15.375C22.1253 15.378 13.1565 15.3728 13.125 15.375C12.5063 15.375 12 14.8687 12 14.25V10.5C12 9.88125 12.5063 9.375 13.125 9.375C13.3831 9.37271 21.7902 9.37665 21.75 9.375V7.125C21.75 6.09 20.91 5.25 19.875 5.25Z" fill="#0036BC"/>
<path d="M15.0225 4.5C14.6166 3.99544 13.6022 2.73589 13.2113 2.25L11.7338 0.41625C11.52 0.15 11.205 0 10.875 0C10.545 0 10.23 0.15 10.0163 0.41625L8.53875 2.25C8.14763 2.7291 7.1295 4.00549 6.7275 4.5H15.0225Z" fill="#0036BC"/>
<path d="M15.375 11.625C14.3897 11.6439 14.3899 13.1062 15.375 13.125C16.3603 13.106 16.3601 11.6438 15.375 11.625Z" fill="#0036BC"/>
<path d="M13.125 10.125C12.9187 10.125 12.75 10.2937 12.75 10.5V14.25C12.75 14.4563 12.9187 14.625 13.125 14.625C13.3932 14.6258 21.7758 14.6245 21.75 14.625V10.125C21.7455 10.125 13.4196 10.125 13.125 10.125ZM15.375 13.875C13.3966 13.8253 13.3969 10.9244 15.375 10.875C17.3534 10.9247 17.353 13.8255 15.375 13.875Z" fill="#0036BC"/>
<path d="M15.9862 4.5H19.125C19.2559 3.32944 18.4718 2.25285 17.25 2.25H14.175C14.5579 2.72565 15.5902 4.00804 15.9862 4.5Z" fill="#0036BC"/>
</svg>
