<?xml version="1.0" encoding="UTF-8"?>
<svg id="Layer_2" data-name="Layer 2" xmlns="http://www.w3.org/2000/svg" viewBox="0 0 126.12 139">
  <defs>
    <style>
      .cls-1 {
        fill: #0036bc;
      }

      .cls-2 {
        fill: #14b1ff;
      }

      .cls-3 {
        fill: red;
      }
    </style>
  </defs>
  <g id="Layer_1-2" data-name="Layer 1">
    <g>
      <g>
        <path class="cls-1" d="m74.57,0c19.43,7.52,33.21,26.37,33.21,48.46s-12.84,39.62-31.2,47.63c-4.96-11.45-17.5-8.72-17.5-8.72-14.05,1.29-18.17-2.14-18.17-2.14-.49,7.54,11.19,8.51,11.19,8.51-23.31,3.25-37.77-18.88-37.77-18.88,3.66,22.36,29.98,28.72,29.98,28.72,3.36.89,6.53,1.27,9.5,1.3,2.2.28,4.44.42,6.71.42,29.6,0,53.59-23.99,53.59-53.59,0-24.74-16.77-45.55-39.55-51.72Z"/>
        <path class="cls-2" d="m86.8,21.43c-10.02-11.74-26.51-16.75-41.83-11.34-19.92,7.03-30.32,29-23.24,49.05,3.8,10.76,11.86,18.78,21.59,22.82-11.74-3.51-21.73-12.42-26.15-24.91-7.31-20.69,3.43-43.34,23.97-50.59,17.17-6.06,35.75.55,45.66,14.97Z"/>
        <g>
          <path class="cls-1" d="m64.57,63.35h.09c.21.29-.14,7.78-.2,8.69l-.49.34c-.17-2.89-.17-5.81-.19-8.7l.79-.33Z"/>
          <path class="cls-1" d="m62.11,56.91c-.84.41-1.7.77-2.55,1.16-1.21.56-2.37,1.13-3.48,1.87-.73-.6-1.43-1.26-2.15-1.88-2.14-1.86-3.66-3.16-4.92-5.79.85.06,1.69.1,2.54.09.98-.04,2.02-.12,2.97-.35,1.69,1.69,5.37,4,7.59,4.91Z"/>
          <path class="cls-1" d="m79.58,52.25c-1.02,3.07-4.88,6-7.71,7.42-1.24.62-2.59,1.24-3.92,1.64-.52.34-1.33.53-1.91.75-.86.33-1.71.66-2.57.98-1.62.58-3.35,1.14-4.82,2.07-.81.51-1.44,1.09-1.66,2.06.58,2.16,4.19,4.58,5.91,5.93-.81.59-1.67,1.09-2.48,1.68-2.05-1.13-4-2.48-5.6-4.2-1.06-1.13-1.91-2.53-1.85-4.14.16-4.05,5.7-6.06,8.83-7.45,1.47-.64,2.92-1.33,4.35-2.06,2.78-1.4,5.48-2.94,7.79-5.06.86.13,1.7.26,2.56.35,1.02.07,2.06.12,3.08.01Z"/>
          <path class="cls-1" d="m79.19,36.5c-1.18.24-2.37.5-3.56.7-.61.12-1.23.23-1.84.36-2.17-2.58-4.3-4.09-7.6-4.89.13-.61.3-1.2.51-1.78.05-.16.13-.36.14-.53.02-.85-.55-2.04-.7-2.93,4.82.73,8.92,3.16,11.81,7.09.45.62.91,1.28,1.25,1.97Z"/>
          <path class="cls-1" d="m61.89,30.93c.15.58.32,1.16.48,1.74-3.04.73-5.74,2.34-7.64,4.86-.58-.14-1.17-.26-1.76-.39-.44-.04-.9-.16-1.33-.25-.84-.16-1.67-.32-2.51-.5.29-.46.58-.91.9-1.36,2.22-3.17,5.38-5.69,9.09-6.88,1.13-.36,2.28-.56,3.44-.77-.28.95-.53,1.92-.85,2.86l.17.67Z"/>
          <path class="cls-1" d="m72.21,61.19s.11.02.16.03c1.12,1,2.33,2.24,2.86,3.67.44,1.2.34,2.4-.2,3.55-1.71,3.62-6.87,6.34-10.51,7.63-.21,2.2-.16,4.43-.36,6.63-.12-.89-.09-1.82-.12-2.71-.03-1.24-.1-2.48-.11-3.72-.88.35-1.76.7-2.62,1.09-1.27.64-2.32,1.33-3.21,2.45.96-2.83,4.96-5.27,7.35-6.91,1.33-.91,2.65-1.82,3.86-2.88.66-.58,1.38-1.22,1.85-1.97.25-.4.44-.89.31-1.37-.4-1.49-3.04-2.65-4.31-3.34.61-.3,1.31-.51,1.94-.76,1.06-.42,2.09-.87,3.11-1.39Z"/>
          <path class="cls-1" d="m64.31,22.59c.25.31,1.59,6.42,2.09,7.65-.29.74-.7,1.84-.78,2.61-.1,1.04.01,2.26.04,3.32l.18,6.73c.05,2.41.08,4.82.09,7.23,0,1.67-.03,3.35.05,5.02-.75.27-1.48.66-2.2.99-.4.17-.79.36-1.19.55-.04-5.08.02-10.16.19-15.24l.15-5.65c.02-.96.13-2.01.03-2.96-.09-.84-.47-1.74-.67-2.57.26-.8.46-1.63.68-2.44.47-1.75.92-3.5,1.36-5.25Z"/>
          <path class="cls-2" d="m99.26,29.84l.04.04c-.2.85-1.74,3.19-2.3,3.93-3.35,4.38-8.61,7.14-13.9,8.37-1.34.31-2.71.58-4.07.77-1.04.14-2.09.22-3.14.36,1.2.06,2.42-.03,3.61-.1,5.29-.31,10.21-1.31,15.12-3.3-.4.68-.96,1.31-1.5,1.89-3.27,3.49-8.6,4.98-13.23,5.42-1.84.18-3.7.17-5.55.23,1.83.43,3.62.81,5.49,1.04,2.56.29,4.75.07,7.24-.53-.73.64-1.45,1.23-2.29,1.72-3.15,1.85-6.42,2.03-9.95,1.58-.83-.11-1.7-.2-2.51-.41-1.64,1.47-3.74,2.62-5.7,3.61.03-1.86.05-3.71.05-5.57,0-1.21-.1-2.58.17-3.76.53-2.26,2.19-4.23,4.2-5.33,1.92-1.06,4.16-1.41,6.28-1.83,1.12-.23,2.23-.47,3.34-.74,6.53-1.55,12.89-3.83,18.59-7.41Z"/>
          <path class="cls-2" d="m29.16,29.89c.32.13.64.36.95.54.63.37,1.25.76,1.9,1.1,1.22.64,2.45,1.23,3.71,1.79,1.25.56,2.53,1.07,3.81,1.55,1.55.55,3.12,1.04,4.71,1.48,1.59.44,3.19.82,4.8,1.14,2.28.47,4.71.75,6.89,1.55,1.35.5,2.61,1.22,3.62,2.25,2.58,2.62,2.36,4.51,2.35,7.89l-.02,5.32c-2.02-.94-3.86-2.21-5.62-3.55-2.39.47-5.02.81-7.45.45-2.68-.39-6.17-1.59-7.86-3.83,2.41,1.13,5.13,1.23,7.73,1.02,2.08-.14,4.21-.6,6.23-1.12-.95-.09-1.93-.04-2.88-.08-3.01-.12-6.11-.31-9.02-1.12-3.51-.97-7.12-3.04-8.96-6.29,4.72,2.18,11.25,3.12,16.42,3.3.89.03,1.91.15,2.79.02-.41-.12-.99-.08-1.42-.11-.63-.05-1.26-.11-1.89-.2-.69-.09-1.37-.2-2.06-.33-.68-.13-1.36-.27-2.04-.43-.68-.16-1.35-.34-2.02-.53-.67-.19-1.33-.4-1.99-.62-4.64-1.57-8.63-4.35-11.27-8.53-.53-.85-.98-1.76-1.43-2.66Z"/>
        </g>
      </g>
      <g>
        <path class="cls-1" d="m16.85,117.32c1.16-2.14,2.76-3.79,4.82-4.97,2.05-1.17,4.4-1.76,7.05-1.76,3.41,0,6.23.85,8.47,2.56,2.23,1.71,3.73,4.1,4.49,7.18h-7.5c-.4-1.19-1.07-2.13-2.01-2.81-.94-.68-2.11-1.02-3.5-1.02-1.99,0-3.56.72-4.72,2.16-1.16,1.44-1.74,3.49-1.74,6.13s.58,4.64,1.74,6.08,2.73,2.16,4.72,2.16c2.81,0,4.65-1.26,5.51-3.77h7.5c-.76,2.98-2.27,5.35-4.52,7.1-2.25,1.76-5.07,2.63-8.44,2.63-2.65,0-5-.59-7.05-1.76-2.05-1.18-3.66-2.83-4.82-4.97-1.16-2.14-1.74-4.63-1.74-7.48s.58-5.34,1.74-7.47Z"/>
        <path class="cls-1" d="m46.67,117.3c1.11-2.15,2.62-3.81,4.52-4.97,1.9-1.16,4.03-1.74,6.38-1.74,2.05,0,3.85.41,5.39,1.24,1.54.83,2.77,1.87,3.7,3.13v-3.92h7v27.52h-7v-4.02c-.89,1.29-2.13,2.36-3.7,3.2-1.57.84-3.39,1.27-5.44,1.27-2.32,0-4.43-.6-6.33-1.79-1.9-1.19-3.41-2.87-4.52-5.04-1.11-2.17-1.66-4.66-1.66-7.47s.55-5.25,1.66-7.4Zm19,3.15c-.66-1.21-1.56-2.14-2.68-2.78-1.13-.65-2.33-.97-3.63-.97s-2.48.31-3.58.94c-1.09.63-1.98,1.55-2.66,2.76-.68,1.21-1.02,2.64-1.02,4.3s.34,3.1,1.02,4.35c.68,1.24,1.57,2.19,2.68,2.86,1.11.66,2.29.99,3.55.99s2.5-.32,3.63-.97c1.13-.65,2.02-1.57,2.68-2.78.66-1.21.99-2.66.99-4.35s-.33-3.14-.99-4.35Z"/>
        <path class="cls-1" d="m90.93,111.88c1.44-.83,3.09-1.24,4.94-1.24v7.3h-1.84c-2.19,0-3.83.51-4.94,1.54-1.11,1.03-1.66,2.81-1.66,5.36v13.71h-6.95v-27.52h6.95v4.27c.89-1.46,2.06-2.6,3.5-3.43Z"/>
        <path class="cls-1" d="m125.92,126.88h-20.12c.17,1.99.86,3.54,2.09,4.67,1.22,1.13,2.73,1.69,4.52,1.69,2.58,0,4.42-1.11,5.51-3.33h7.5c-.79,2.65-2.32,4.83-4.57,6.53-2.25,1.71-5.02,2.56-8.29,2.56-2.65,0-5.02-.59-7.13-1.76-2.1-1.18-3.74-2.84-4.92-4.99-1.18-2.15-1.76-4.64-1.76-7.45s.58-5.35,1.74-7.5c1.16-2.15,2.78-3.81,4.87-4.97,2.09-1.16,4.49-1.74,7.2-1.74s4.96.56,7.03,1.69c2.07,1.13,3.68,2.72,4.82,4.79,1.14,2.07,1.71,4.45,1.71,7.13,0,.99-.07,1.89-.2,2.68Zm-7-4.67c-.03-1.79-.68-3.22-1.94-4.3-1.26-1.08-2.8-1.61-4.62-1.61-1.72,0-3.17.52-4.35,1.56-1.18,1.04-1.9,2.49-2.16,4.35h13.06Z"/>
        <path class="cls-3" d="m11.47,135.83s.04-.07.05-.1c.03-.05.05-.1.08-.16.02-.04.03-.07.05-.11.02-.05.05-.1.07-.16.02-.04.03-.07.05-.11.02-.05.04-.11.06-.16.01-.04.03-.08.04-.12.02-.05.04-.11.05-.16.01-.04.03-.08.04-.12.02-.06.03-.11.05-.17.01-.04.02-.08.03-.12.01-.06.03-.12.04-.18,0-.04.02-.08.02-.11.01-.07.02-.13.03-.2,0-.03.01-.07.02-.1.01-.1.02-.2.03-.3.05-.64,0-1.27-.14-1.87-.02-.1-.05-.2-.08-.3h0s0,0,0,0c.03.11.05.22.06.34.01.12.02.23.02.35,0,.18-.02.36-.05.53-.08.44-.27.84-.53,1.19-.04.06-.09.12-.14.17-.73.83-1.95,1.23-3.21.77-.07-.03-.14-.06-.21-.09,0,0-.01,0-.02,0-.04-.02-.08-.04-.13-.07-.02,0-.03-.02-.05-.03-.04-.02-.08-.05-.11-.07-.02-.01-.05-.03-.07-.04-.04-.02-.07-.05-.1-.08-.02-.02-.04-.03-.07-.05-.03-.03-.07-.05-.1-.08-.02-.02-.04-.04-.06-.06-.02-.02-.05-.05-.07-.07,0,0-.01-.01-.02-.02-.02-.03-.05-.05-.07-.08-.01-.01-.02-.02-.03-.03-.01-.01-.02-.02-.03-.04-.02-.03-.04-.05-.06-.08-.02-.03-.04-.05-.06-.08-.02-.03-.04-.06-.06-.09-.02-.03-.04-.06-.06-.09-.02-.03-.03-.05-.05-.08,0,0-.01-.02-.02-.03-.02-.03-.03-.06-.05-.09,0-.02-.02-.04-.03-.06-.01-.02-.02-.04-.03-.07-.02-.04-.03-.08-.05-.12-.01-.03-.02-.06-.03-.09,0,0,0,0,0-.01-.01-.04-.03-.08-.04-.11,0-.02-.01-.05-.02-.07,0-.01,0-.03-.01-.04,0-.04-.02-.07-.03-.11,0-.02,0-.03-.01-.05,0-.02,0-.04-.01-.05,0-.04-.01-.09-.02-.13,0-.01,0-.02,0-.03,0-.02,0-.04,0-.06,0-.07-.01-.15-.01-.22,0,0,0,0,0,0,0-.03,0-.07,0-.1,0-.13,0-.26.03-.38v-.02c0-.06.02-.12.03-.18,0,0,0,0,0-.01l1.34-7.6s0,0,0,0l1.34-7.57v-1.52c-.01-.07-.04-.13-.07-.19,0-.02-.01-.03-.02-.05-.02-.05-.05-.1-.08-.16,0,0,0-.02-.02-.03-.07-.13-.16-.24-.26-.35h0c-.26-.3-.61-.52-1-.64h0s0,0,0,0c-.05-.01-.1-.03-.15-.04,0,0,0,0-.01,0-.05-.01-.09-.02-.14-.03-.02,0-.03,0-.05,0-.04,0-.07,0-.11-.01-.06,0-.11,0-.17,0H.43c1.42,0,2.58,1.16,2.58,2.58,0,.13,0,.26-.03.38,0,0,0,0,0,.02,0,0,0,0,0,0,0,.03-.02.11-.04.23h0c-.09.52-.32,1.81-.61,3.45h0c-.03.15-.06.31-.08.47-.1.59-.21,1.22-.33,1.87l-.12.71s0,0,0,0c-.8,4.54-1.71,9.71-1.71,9.71-.36,2.02.45,3.95,1.89,5.15.03.03.06.05.09.08.04.03.08.06.11.09.03.02.07.05.1.07.04.03.08.05.12.08.04.02.07.05.11.07.04.02.08.05.12.07.04.03.09.05.13.08.06.03.11.06.17.09.05.03.1.05.15.08.04.02.07.03.11.05.05.02.09.04.14.06.04.02.08.03.11.05.05.02.1.04.14.06.04.01.07.03.11.04.06.02.12.04.17.06.03,0,.06.02.09.03.09.02.17.05.26.07.03,0,.05.01.08.02.07.01.13.03.2.04.03,0,.07.01.1.02.06,0,.12.02.18.03.03,0,.07,0,.1.01.06,0,.13.01.2.02.03,0,.06,0,.09,0,.1,0,.19,0,.29,0h.59c1.68,0,3.24-.67,4.37-1.78.07-.07.14-.15.21-.22.01-.01.02-.03.04-.04.04-.05.09-.1.13-.15,0,0,.02-.02.02-.03,0,0,.02-.02.02-.03,0,0,0,0,0,0h0s.02-.02.03-.03c.04-.05.09-.11.13-.16.02-.03.04-.05.06-.08.04-.05.08-.1.11-.16.02-.03.04-.06.06-.09.03-.05.07-.1.1-.16.02-.03.04-.06.06-.1.03-.05.06-.1.09-.16Z"/>
        <circle class="cls-3" cx="5.03" cy="108.25" r="3.4"/>
      </g>
    </g>
  </g>
</svg>